<svg viewBox="0 0 54 54" fill="none" xmlns="http://www.w3.org/2000/svg">
<path d="M36.7208 26.2893H14.7682C14.0778 26.2893 13.5182 26.8489 13.5182 27.5393V43.2321C13.5182 43.9225 14.0778 44.4821 14.7682 44.4821H36.7208C37.4112 44.4821 37.9708 43.9225 37.9708 43.2321V27.5393C37.9708 26.8489 37.4112 26.2893 36.7208 26.2893ZM36.47 27.789V42.982H15.018V27.789H36.47Z" />
<path d="M37.2208 30.4625C37.635 30.4625 37.9708 30.7983 37.9708 31.2125C37.9708 31.5922 37.6887 31.906 37.3226 31.9556L37.2208 31.9625H14.2682C13.854 31.9625 13.5182 31.6267 13.5182 31.2125C13.5182 30.8328 13.8003 30.519 14.1664 30.4693L14.2682 30.4625H37.2208Z" />
<path d="M20.528 26.2893C20.9077 26.2893 21.2215 26.5714 21.2711 26.9375L21.278 27.0393V43.7321C21.278 44.1463 20.9422 44.4821 20.528 44.4821C20.1483 44.4821 19.8345 44.2 19.7848 43.8339L19.778 43.7321V27.0393C19.778 26.6251 20.1138 26.2893 20.528 26.2893Z" />
<path d="M26.7878 26.2893C27.1675 26.2893 27.4813 26.5714 27.531 26.9375L27.5378 27.0393V43.7321C27.5378 44.1463 27.202 44.4821 26.7878 44.4821C26.4081 44.4821 26.0943 44.2 26.0446 43.8339L26.0378 43.7321V27.0393C26.0378 26.6251 26.3736 26.2893 26.7878 26.2893Z" />
<path d="M28.8661 1.25H10.0866C8.51999 1.25 7.25 2.51999 7.25 4.08661V47.9053C7.25 49.4719 8.51999 50.7419 10.0866 50.7419H41.3857C42.9523 50.7419 44.2223 49.4719 44.2223 47.9053V16.6062C44.2223 16.4073 44.1433 16.2166 44.0026 16.0759L29.3964 1.46967C29.2557 1.32902 29.065 1.25 28.8661 1.25ZM28.555 2.75L42.7223 16.917V47.9053C42.7223 48.6435 42.1239 49.2419 41.3857 49.2419H10.0866C9.34842 49.2419 8.75 48.6435 8.75 47.9053V4.08661C8.75 3.34842 9.34842 2.75 10.0866 2.75H28.555Z"/>
<path d="M28.8661 1.25C29.2458 1.25 29.5596 1.53215 29.6092 1.89823L29.6161 2V14.5196C29.6161 15.2144 30.1461 15.7854 30.8239 15.8501L30.9527 15.8562H43.4723C43.8865 15.8562 44.2223 16.192 44.2223 16.6062C44.2223 16.9859 43.9401 17.2997 43.5741 17.3494L43.4723 17.3562H30.9527C29.4441 17.3562 28.2105 16.1786 28.1212 14.6924L28.1161 14.5196V2C28.1161 1.58579 28.4518 1.25 28.8661 1.25Z"/>
<path d="M18.4414 17.9428C18.8211 17.9428 19.1349 18.225 19.1845 18.5911L19.1914 18.6928V20.7795C19.1914 21.1937 18.8556 21.5295 18.4414 21.5295C18.0617 21.5295 17.7479 21.2473 17.6982 20.8812L17.6914 20.7795V18.6928C17.6914 18.2786 18.0272 17.9428 18.4414 17.9428Z" />
<path d="M18.4414 7.50982C18.8211 7.50982 19.1349 7.79197 19.1845 8.15805L19.1914 8.25982V10.3464C19.1914 10.7606 18.8556 11.0964 18.4414 11.0964C18.0617 11.0964 17.7479 10.8143 17.6982 10.4482L17.6914 10.3464V8.25982C17.6914 7.84561 18.0272 7.50982 18.4414 7.50982Z" />
<path d="M22.6062 9.59642C23.0205 9.59642 23.3562 9.93221 23.3562 10.3464C23.3562 10.7261 23.0741 11.0399 22.708 11.0896L22.6062 11.0964H16.3464C15.6082 11.0964 15.0098 11.6948 15.0098 12.433C15.0098 13.1278 15.5399 13.6988 16.2177 13.7635L16.3464 13.7696H20.5196C22.0863 13.7696 23.3562 15.0396 23.3562 16.6062C23.3562 18.1148 22.1786 19.3484 20.6924 19.4377L20.5196 19.4428H14.2598C13.8456 19.4428 13.5098 19.1071 13.5098 18.6928C13.5098 18.3132 13.792 17.9994 14.158 17.9497L14.2598 17.9428H20.5196C21.2578 17.9428 21.8562 17.3444 21.8562 16.6062C21.8562 15.9115 21.3262 15.3405 20.6484 15.2758L20.5196 15.2696H16.3464C14.7798 15.2696 13.5098 13.9996 13.5098 12.433C13.5098 10.9244 14.6875 9.6909 16.1736 9.6016L16.3464 9.59642H22.6062Z"/>
</svg>
