<svg viewBox="0 0 54 54" xmlns="http://www.w3.org/2000/svg">
<path d="M14.433 2.25H6.08661C4.51999 2.25 3.25 3.51999 3.25 5.08661V48.9053C3.25 50.4719 4.51999 51.7419 6.08661 51.7419H14.433C15.9996 51.7419 17.2696 50.4719 17.2696 48.9053V5.08661C17.2696 3.51999 15.9996 2.25 14.433 2.25ZM6.08661 3.75H14.433C15.1712 3.75 15.7696 4.34842 15.7696 5.08661V48.9053C15.7696 49.6435 15.1712 50.2419 14.433 50.2419H6.08661C5.34842 50.2419 4.75 49.6435 4.75 48.9053V5.08661C4.75 4.34842 5.34842 3.75 6.08661 3.75Z" />
<path d="M26.9527 18.9428H18.6062C17.0396 18.9428 15.7696 20.2128 15.7696 21.7795V48.9053C15.7696 50.4719 17.0396 51.7419 18.6062 51.7419H26.9527C28.5193 51.7419 29.7893 50.4719 29.7893 48.9053V21.7795C29.7893 20.2128 28.5193 18.9428 26.9527 18.9428ZM18.6062 20.4428H26.9527C27.6909 20.4428 28.2893 21.0413 28.2893 21.7795V48.9053C28.2893 49.6435 27.6909 50.2419 26.9527 50.2419H18.6062C17.8681 50.2419 17.2696 49.6435 17.2696 48.9053V21.7795C17.2696 21.0413 17.8681 20.4428 18.6062 20.4428Z" />
<path d="M22.7795 42.9388C23.1591 42.9388 23.4729 43.221 23.5226 43.587L23.5295 43.6888V46.8187C23.5295 47.2329 23.1937 47.5687 22.7795 47.5687C22.3998 47.5687 22.086 47.2866 22.0363 46.9205L22.0295 46.8187V43.6888C22.0295 43.2746 22.3652 42.9388 22.7795 42.9388Z" />
<path d="M10.2598 6.42321C10.6395 6.42321 10.9533 6.70536 11.003 7.07144L11.0098 7.17321V34.2991C11.0098 34.7133 10.674 35.0491 10.2598 35.0491C9.88012 35.0491 9.56633 34.7669 9.51666 34.4009L9.50982 34.2991V7.17321C9.50982 6.759 9.8456 6.42321 10.2598 6.42321Z" />
<path d="M22.7795 23.1161C23.1591 23.1161 23.4729 23.3982 23.5226 23.7643L23.5295 23.8661V39.5156C23.5295 39.9298 23.1937 40.2656 22.7795 40.2656C22.3998 40.2656 22.086 39.9834 22.0363 39.6174L22.0295 39.5156V23.8661C22.0295 23.4518 22.3652 23.1161 22.7795 23.1161Z" />
<path d="M10.2515 38.7656C10.6312 38.7656 10.945 39.0478 10.9946 39.4138L11.0015 39.5156V45.7754C11.0015 46.1896 10.6657 46.5254 10.2515 46.5254C9.87178 46.5254 9.55798 46.2433 9.50832 45.8772L9.50147 45.7754V39.5156C9.50147 39.1014 9.83726 38.7656 10.2515 38.7656Z" />
<path d="M36.2058 7.36787L28.2764 9.95742C26.7873 10.444 25.9746 12.0454 26.4609 13.5344L38.1188 49.2404C38.3516 49.9554 38.8595 50.549 39.5304 50.89C40.2012 51.2311 40.9801 51.2915 41.6955 51.0581L49.6249 48.4686C51.114 47.982 51.9267 46.3806 51.4404 44.8916L39.7825 9.18562C39.5497 8.47057 39.0418 7.87695 38.3709 7.53593C37.7001 7.19491 36.9212 7.13446 36.2058 7.36787ZM37.6912 8.87309C38.0073 9.03378 38.2466 9.31349 38.3565 9.65067L50.0145 45.3572C50.2437 46.0589 49.8607 46.8135 49.1591 47.0427L41.2301 49.6321C40.8932 49.7421 40.5262 49.7136 40.2101 49.5529C39.894 49.3922 39.6547 49.1125 39.5448 48.7753L27.8868 13.0688C27.6576 12.3671 28.0406 11.6125 28.7422 11.3833L36.6712 8.79383C36.96 8.69962 37.2709 8.70709 37.5529 8.81233L37.6912 8.87309Z" fill="black"/>
<path d="M33.5391 12.6303C33.9 12.5125 34.2859 12.6834 34.4466 13.016L34.4847 13.1107L40.9574 32.948C41.0858 33.3418 40.8708 33.7652 40.477 33.8937C40.116 34.0115 39.7302 33.8406 39.5694 33.5079L39.5313 33.4133L33.0587 13.5759C32.9302 13.1822 33.1453 12.7588 33.5391 12.6303Z" />
<path d="M41.6227 37.4296C41.9837 37.3119 42.3695 37.4828 42.5302 37.8155L42.5683 37.9101L44.5088 43.8611C44.6372 44.2549 44.4221 44.6783 44.0283 44.8067C43.6673 44.9244 43.2815 44.7534 43.1208 44.4208L43.0827 44.3261L41.1422 38.3751C41.0137 37.9813 41.2289 37.558 41.6227 37.4296Z" />
</svg>
