<svg viewBox="0 0 54 54" fill="none" xmlns="http://www.w3.org/2000/svg">
<path d="M11.4354 32.5C14.0446 31.644 16.9091 32.5481 18.554 34.747C18.8022 35.0786 18.7344 35.5487 18.4028 35.7968C18.0711 36.0449 17.6011 35.9772 17.3529 35.6455C16.0936 33.9621 13.9005 33.2699 11.903 33.9253C9.90537 34.5806 8.54863 36.4375 8.53127 38.5397C8.51392 40.642 9.83981 42.521 11.8263 43.2093C13.8128 43.8975 16.017 43.2416 17.3039 41.5792C17.5575 41.2517 18.0286 41.1917 18.3561 41.4453C18.6836 41.6989 18.7436 42.17 18.49 42.4975C16.809 44.6689 13.93 45.5256 11.3352 44.6266C8.74051 43.7276 7.00865 41.2733 7.03132 38.5274C7.054 35.7814 8.82614 33.3561 11.4354 32.5Z" />
<path d="M4.01989 29.345C0.303372 33.1345 -0.776872 38.7838 1.27934 43.6771C3.33555 48.5705 8.1268 51.7526 13.4346 51.75H45.0689C49.8509 51.75 53.7275 47.8734 53.7275 43.0913C53.377 38.8959 50.3848 35.4685 46.337 34.5659L18.2305 26.3037C13.4672 24.4068 7.97552 25.5063 4.25968 29.1066L4.01989 29.345ZM17.742 27.7202L45.9623 36.0175C49.4182 36.7898 51.9373 39.6752 52.2302 43.1543C52.2275 47.045 49.0225 50.25 45.0689 50.25H13.4342C8.73025 50.2523 4.48437 47.4324 2.66221 43.0961C0.840052 38.7597 1.79734 33.7534 5.09081 30.3953C8.38429 27.0371 13.371 25.9827 17.742 27.7202Z" />
<path d="M31.3293 3.95027C31.7311 3.84981 32.1383 4.09413 32.2388 4.49598L34.7855 14.6806C34.8066 14.7651 34.9444 14.8815 35.2206 15.033L35.454 15.1533C35.4974 15.1744 35.5429 15.1961 35.5908 15.2184L35.9059 15.3589L36.278 15.5133L37.5073 15.9889C37.5861 16.0201 37.6626 16.0507 37.7371 16.081L38.1586 16.2579C38.2247 16.2868 38.2888 16.3153 38.351 16.3437L38.7011 16.5116C39.52 16.9276 39.9252 17.3248 40.1126 17.9293L40.6082 19.9622L45.0597 38.6793C45.285 39.6295 45.0352 40.6299 44.3897 41.3627C43.7873 42.0466 42.9101 42.4181 42.006 42.3804L41.812 42.3661L13.3544 39.3178C12.9425 39.2737 12.6444 38.9041 12.6885 38.4922C12.729 38.1147 13.0429 37.8327 13.4122 37.8223L13.5141 37.8264L41.9713 40.8746C42.4584 40.9265 42.9403 40.7388 43.2641 40.3713C43.5879 40.0037 43.7132 39.5019 43.6003 39.0256L38.6925 18.4185C38.6548 18.2688 38.4608 18.0976 38.0653 17.8852L37.8035 17.7527L37.4911 17.6094L37.1261 17.4543L36.7062 17.2866L35.932 16.9903L35.486 16.8132L35.0906 16.6461C34.0392 16.1839 33.5622 15.8023 33.3624 15.1595L33.2873 14.8723L30.7836 4.85978C30.6831 4.45794 30.9274 4.05074 31.3293 3.95027Z"/>
<path d="M38.7284 25.5246C39.0706 25.758 39.1588 26.2246 38.9255 26.5668L37.3417 28.8722C37.1068 29.2133 36.6398 29.2994 36.2986 29.0644C35.9575 28.8294 35.8715 28.3624 36.1065 28.0213L37.6862 25.7216C37.9196 25.3794 38.3862 25.2912 38.7284 25.5246Z" />
<path d="M48.5265 3.38065C48.8686 3.61425 48.9565 4.08092 48.7229 4.42297L42.8077 13.0992C42.7618 13.1665 42.7589 13.3105 42.809 13.5564L42.8566 13.7602L42.925 14.0046L43.0152 14.2919C43.0321 14.3435 43.0499 14.397 43.0687 14.4524L43.2644 15.0045L43.5783 15.84L43.7508 16.3169C44.2539 17.7548 44.3445 18.5274 43.9186 19.2337L43.8471 19.3448L43.4607 19.9119C43.2275 20.2543 42.7609 20.3427 42.4186 20.1095C42.1074 19.8975 42.006 19.4926 42.1654 19.1636L42.2211 19.0674L42.6087 18.4985C42.707 18.355 42.6912 18.034 42.5396 17.4779L42.4433 17.1508L42.3193 16.7751L42.1667 16.3485L41.7498 15.235L41.6 14.8106C41.5772 14.7438 41.5555 14.6789 41.5349 14.6158L41.4246 14.2582C41.1657 13.3576 41.1892 12.8648 41.5053 12.3513L46.3046 5.30496L47.4842 3.57702C47.7178 3.23496 48.1844 3.14705 48.5265 3.38065Z"/>
</svg>
