<svg viewBox="0 0 54 54"  xmlns="http://www.w3.org/2000/svg">
<path d="M39.5237 30.9408L39.6537 30.9474C40.2949 31.0125 40.7953 31.554 40.7953 32.2124C40.7953 32.9148 40.226 33.4841 39.5237 33.4841C38.8214 33.4841 38.252 32.9148 38.252 32.2124C38.252 31.554 38.7524 31.0125 39.3937 30.9474L39.5237 30.9408Z" />
<path d="M29.0906 30.9408L29.2207 30.9474C29.8619 31.0125 30.3623 31.554 30.3623 32.2124C30.3623 32.9148 29.793 33.4841 29.0906 33.4841C28.3883 33.4841 27.819 32.9148 27.819 32.2124C27.819 31.554 28.3194 31.0125 28.9606 30.9474L29.0906 30.9408Z" />
<path d="M34.3072 33.0274L34.4372 33.034C35.0784 33.0991 35.5788 33.6406 35.5788 34.299C35.5788 35.0014 35.0095 35.5707 34.3072 35.5707C33.6048 35.5707 33.0355 35.0014 33.0355 34.299C33.0355 33.6406 33.5359 33.0991 34.1771 33.034L34.3072 33.0274Z" />
<path d="M27.0118 16.8562C27.5229 16.8615 28.0075 17.0846 28.3438 17.4696C28.6427 17.8117 28.7993 18.2529 28.7859 18.7019L28.7729 18.8705L28.147 23.9576C28.0964 24.3687 27.7221 24.661 27.311 24.6104C26.9341 24.564 26.6571 24.2457 26.6526 23.8763L26.6582 23.7744L27.2843 18.6858C27.2947 18.6029 27.2692 18.5194 27.2142 18.4565C27.1729 18.4092 27.118 18.3769 27.0611 18.3633L27.004 18.3562L4.04565 18.3561C3.96109 18.3555 3.88037 18.3914 3.82418 18.4545C3.78204 18.5019 3.75677 18.5611 3.75118 18.6232L3.75227 18.6858L7.66466 49.985C7.68047 50.1115 7.77537 50.2108 7.89949 50.2358L7.96375 50.2419H16.571C16.9852 50.2419 17.321 50.5777 17.321 50.9919C17.321 51.3716 17.0388 51.6854 16.6728 51.7351L16.571 51.742H7.96949C7.11035 51.7485 6.37508 51.1465 6.20104 50.3192L6.17624 50.171L2.26385 18.8719C2.19976 18.3591 2.36 17.8436 2.7035 17.4575C3.00883 17.1143 3.43255 16.903 3.88186 16.863L4.05137 16.8562H27.0118Z"/>
<path d="M40.567 27.2892H28.0473C23.0235 27.2892 18.9509 31.3618 18.9509 36.3856V38.4723C18.9509 38.8865 19.2867 39.2223 19.7009 39.2223H48.9134C49.3276 39.2223 49.6634 38.8865 49.6634 38.4723V36.3856C49.6634 31.3618 45.5908 27.2892 40.567 27.2892ZM40.567 28.7892L40.8128 28.7931C44.8944 28.9229 48.1634 32.2725 48.1634 36.3856L48.163 37.722H20.45L20.4509 36.3856C20.4509 32.1903 23.8519 28.7892 28.0473 28.7892H40.567Z" />
<path d="M47.8701 37.7223H20.7442C18.6014 37.7223 16.8643 39.4594 16.8643 41.6022L16.8696 41.8007C16.9851 43.871 18.6833 45.4821 20.7442 45.4821H47.8701C50.0129 45.4821 51.75 43.745 51.75 41.6022C51.75 39.4594 50.0129 37.7223 47.8701 37.7223ZM20.7442 39.2223H47.8701C49.1845 39.2223 50.25 40.2878 50.25 41.6022C50.25 42.9166 49.1845 43.9821 47.8701 43.9821H20.7442C19.4802 43.9821 18.4383 42.9936 18.3681 41.7379L18.364 41.5813C18.364 40.2878 19.4298 39.2223 20.7442 39.2223Z" />
<path d="M48.9134 43.9821H19.7009C19.2867 43.9821 18.9509 44.3179 18.9509 44.7321V46.8187C18.9509 49.5377 21.1551 51.7419 23.8741 51.7419H44.7402C47.4592 51.7419 49.6634 49.5377 49.6634 46.8187V44.7321C49.6634 44.3179 49.3276 43.9821 48.9134 43.9821ZM20.45 45.482H48.163L48.1634 46.8187C48.1634 48.7093 46.6308 50.2419 44.7402 50.2419H23.8741L23.6863 50.2368C21.8831 50.1393 20.4509 48.6462 20.4509 46.8187L20.45 45.482Z" />
<path d="M16.7147 2.80604C17.2991 2.37377 18.025 2.18384 18.7413 2.27041L18.9364 2.30089L28.1884 4.07242C28.5952 4.15032 28.8618 4.54326 28.784 4.95008C28.7125 5.32301 28.3764 5.57814 28.0075 5.55807L27.9063 5.54566L18.6538 3.77403C18.2868 3.7035 17.9071 3.78981 17.6067 4.01201C17.3438 4.20644 17.1626 4.48939 17.0947 4.80564L17.0726 4.94305L13.1435 41.6819C13.0995 42.0938 12.7299 42.392 12.318 42.3479C11.9405 42.3075 11.6585 41.9936 11.648 41.6243L11.652 41.5224L15.5812 4.78302C15.6661 3.99456 16.0771 3.27762 16.7147 2.80604Z" />
</svg>
