<svg viewBox="0 0 54 54"  xmlns="http://www.w3.org/2000/svg">
<path d="M37.3424 10.6397H16.4763C13.7573 10.6397 11.5531 12.8439 11.5531 15.5629L10.5124 28.0203L10.5098 42.6888C10.5098 44.2554 11.7798 45.5254 13.3464 45.5254H40.4723C42.0389 45.5254 43.3089 44.2554 43.3089 42.6888V28.0826L42.263 15.5007C42.2656 12.8439 40.0614 10.6397 37.3424 10.6397ZM16.4763 12.1397H37.3424C39.233 12.1397 40.7656 13.6723 40.7656 15.5629L41.8115 28.1449L41.8089 42.6888C41.8089 43.427 41.2105 44.0254 40.4723 44.0254H13.3464C12.6082 44.0254 12.0098 43.427 12.0098 42.6888V28.0826L13.0505 15.6252C13.0531 13.6723 14.5857 12.1397 16.4763 12.1397Z" />
<path d="M42.5589 27.3326C42.9731 27.3326 43.3089 27.6684 43.3089 28.0826C43.3089 28.4623 43.0268 28.7761 42.6607 28.8257L42.5589 28.8326H11.2598C10.8456 28.8326 10.5098 28.4968 10.5098 28.0826C10.5098 27.7029 10.792 27.3891 11.158 27.3394L11.2598 27.3326H42.5589Z" />
<path d="M22.7361 2.2933C23.1158 2.2933 23.4296 2.57546 23.4793 2.94153L23.4861 3.0433V11.3897C23.4861 11.8039 23.1504 12.1397 22.7361 12.1397C22.3565 12.1397 22.0427 11.8576 21.993 11.4915L21.9861 11.3897V3.0433C21.9861 2.62909 22.3219 2.2933 22.7361 2.2933Z" />
<path d="M31.0826 2.2933C31.4623 2.2933 31.7761 2.57546 31.8257 2.94153L31.8326 3.0433V11.3897C31.8326 11.8039 31.4968 12.1397 31.0826 12.1397C30.7029 12.1397 30.3891 11.8576 30.3394 11.4915L30.3326 11.3897V3.0433C30.3326 2.62909 30.6684 2.2933 31.0826 2.2933Z" />
<path d="M36.2991 2.2933C36.7133 2.2933 37.0491 2.62909 37.0491 3.0433C37.0491 3.423 36.7669 3.7368 36.4009 3.78646L36.2991 3.7933H17.5196C17.1054 3.7933 16.7696 3.45752 16.7696 3.0433C16.7696 2.66361 17.0518 2.34981 17.4179 2.30015L17.5196 2.2933H36.2991Z" />
<path d="M19.6062 32.5491C17.4634 32.5491 15.7263 34.2862 15.7263 36.429C15.7263 38.5718 17.4634 40.3089 19.6062 40.3089C21.7491 40.3089 23.4861 38.5718 23.4861 36.429C23.4861 34.2862 21.7491 32.5491 19.6062 32.5491ZM19.6062 34.0491C20.9206 34.0491 21.9861 35.1146 21.9861 36.429C21.9861 37.7434 20.9206 38.8089 19.6062 38.8089C18.2919 38.8089 17.2263 37.7434 17.2263 36.429C17.2263 35.1146 18.2919 34.0491 19.6062 34.0491Z" />
<path d="M34.2125 32.5491C32.0697 32.5491 30.3326 34.2862 30.3326 36.429C30.3326 38.5718 32.0697 40.3089 34.2125 40.3089C36.3553 40.3089 38.0924 38.5718 38.0924 36.429C38.0924 34.2862 36.3553 32.5491 34.2125 32.5491ZM34.2125 34.0491C35.5269 34.0491 36.5924 35.1146 36.5924 36.429C36.5924 37.7434 35.5269 38.8089 34.2125 38.8089C32.8981 38.8089 31.8326 37.7434 31.8326 36.429C31.8326 35.1146 32.8981 34.0491 34.2125 34.0491Z" />
<path d="M15.0472 44.1323C15.4023 43.9192 15.863 44.0344 16.0761 44.3896C16.2715 44.7151 16.191 45.1294 15.9026 45.3603L15.8189 45.4185L5.38587 51.6784C5.03069 51.8915 4.56999 51.7763 4.35688 51.4211C4.16153 51.0955 4.24203 50.6813 4.53038 50.4504L4.61413 50.3921L15.0472 44.1323Z" />
<path d="M37.7426 44.3896C37.9379 44.064 38.3413 43.9401 38.6808 44.0858L38.7716 44.1323L49.2046 50.3921C49.5598 50.6052 49.675 51.0659 49.4618 51.4211C49.2665 51.7467 48.8631 51.8706 48.5236 51.7249L48.4329 51.6784L37.9998 45.4185C37.6446 45.2054 37.5295 44.7447 37.7426 44.3896Z" />
</svg>
